# xmcd
#
# Track frame offsets:
# 150
# 12365
# 23960
# 37241
# 49394
# 62205
# 75286
# 88473
# 101574
# 114117
# 126420
# 138216
# 149819
# 162078
# 174367
# 186403
# 198845
# 211180
# 223406
# 235983
#
# Disc length: 3317 seconds
#
#
# Revision: 0
# Processed by: cddbd v1.4PL0 Copyright (c) Steve Scherf et al.
# Submitted via: FreeRIP 2.40 
#
DISCID=2b0cf314
DTITLE=Hank Williams - The Best Of
DYEAR=1900
DGENRE=Country
TTITLE0=lovesick blues
TTITLE1=a mansion on the hill
TTITLE2=you're gonna change
TTITLE3=lost highway
TTITLE4=i'm a long gone daddy
TTITLE5=i can't get you off my mind
TTITLE6=mind your own business
TTITLE7=wedding bells
TTITLE8=i'm so lonesome i could cry
TTITLE9=i saw the light
TTITLE10=i'll be a bachelor til i die
TTITLE11=i'm satisfied with you
TTITLE12=my sweet love ain't around
TTITLE13=honky tonkin'
TTITLE14=the blues come around
TTITLE15=wealth won't save your soul
TTITLE16=move it on over
TTITLE17=last night i heard you cry in your sleep
TTITLE18=i don't care if tomorrow never comes
TTITLE19=calling you
EXTD=
EXTT0=
EXTT1=
EXTT2=
EXTT3=
EXTT4=
EXTT5=
EXTT6=
EXTT7=
EXTT8=
EXTT9=
EXTT10=
EXTT11=
EXTT12=
EXTT13=
EXTT14=
EXTT15=
EXTT16=
EXTT17=
EXTT18=
EXTT19=
PLAYORDER=
